<?xml version="1.0" encoding="UTF-8"?>
<svg width="1024" height="1024" version="1.1" viewBox="0 0 1024 1024" xmlns="http://www.w3.org/2000/svg">
  <circle cx="512" cy="512" r="512" fill="#f4d03e"/>
  <circle cx="512" cy="512" r="418.27" fill="#fff" fill-opacity=".17341"/>
  <path d="m512 185.02a326.98 326.98 0 0 0-326.98 326.98 326.98 326.98 0 0 0 326.98 326.98 326.98 326.98 0 0 0 232.58-98.312l-92.264-92.264a197.65 195.16 0 0 1-140.31 58.752 197.65 195.16 0 0 1-197.65-195.16 197.65 195.16 0 0 1 197.65-195.16 197.65 195.16 0 0 1 136.38 54.873l92.289-92.289a326.98 326.98 0 0 0-228.67-94.408z" fill="#fdffff"/>
  <path d="m512.39 336.17a175.83 175.83 0 0 0-175.83 175.83 175.83 175.83 0 0 0 175.83 175.83 175.83 175.83 0 0 0 125.07-52.867l-49.614-49.614a106.29 104.95 0 0 1-75.452 31.594 106.29 104.95 0 0 1-106.29-104.95 106.29 104.95 0 0 1 106.29-104.95 106.29 104.95 0 0 1 73.339 29.508l49.628-49.628a175.83 175.83 0 0 0-122.97-50.767z" fill="#fdffff" opacity=".4"/>
  <g fill="#fff" opacity=".5">
    <path d="m750.61 368.19-15.117 0.16211 3.0508 287.45 15.117-0.16211z" color="#000000"/>
    <g stroke-linecap="round">
      <path d="m790.93 606.11a7.5591 7.5591 0 0 0-5.3203 2.2695l-39.582 40.432-40.432-39.582a7.5591 7.5591 0 0 0-10.689 0.11328 7.5591 7.5591 0 0 0 0.11328 10.689l51.234 50.16 50.158-51.236a7.5591 7.5591 0 0 0-0.11328-10.689 7.5591 7.5591 0 0 0-5.3691-2.1562z" color="#000000"/>
      <path d="m742.9 353.8-50.158 51.236a7.5591 7.5591 0 0 0 0.11328 10.689 7.5591 7.5591 0 0 0 10.689-0.11328l39.582-40.432 40.432 39.582a7.5591 7.5591 0 0 0 10.689-0.11328 7.5591 7.5591 0 0 0-0.11328-10.689z" color="#000000"/>
    </g>
  </g>
</svg>
